<svg width="31" height="30" viewBox="0 0 31 30" fill="none" xmlns="http://www.w3.org/2000/svg">
<path fill-rule="evenodd" clip-rule="evenodd" d="M6.47724 15C6.47724 14.0257 6.6477 13.0915 6.95231 12.2154L1.62357 8.35498C0.585 10.3554 0 12.6096 0 15C0 17.3885 0.584506 19.6411 1.62135 21.6403L6.94712 17.7724C6.64548 16.9003 6.47724 15.9696 6.47724 15Z" fill="#FBBC05"/>
<path fill-rule="evenodd" clip-rule="evenodd" d="M15.8334 6.13641C18.0644 6.13641 20.0796 6.88641 21.6629 8.11359L26.2688 3.75C23.4621 1.4318 19.8637 0 15.8334 0C9.57625 0 4.1986 3.39469 1.62366 8.355L6.95215 12.2154C8.17996 8.67961 11.6798 6.13641 15.8334 6.13641Z" fill="#EA4335"/>
<path fill-rule="evenodd" clip-rule="evenodd" d="M15.8334 23.8637C11.6801 23.8637 8.1802 21.3204 6.95239 17.7847L1.62366 21.6444C4.1986 26.6054 9.57625 30.0001 15.8334 30.0001C19.6952 30.0001 23.3823 28.699 26.1494 26.2615L21.0915 22.5519C19.6643 23.4047 17.867 23.8637 15.8334 23.8637Z" fill="#34A853"/>
<path fill-rule="evenodd" clip-rule="evenodd" d="M30.9468 14.9999C30.9468 14.1135 30.8028 13.1589 30.5868 12.2727H15.8334V18.0681H24.3258C23.9011 20.0441 22.7454 21.5631 21.0915 22.5517L26.1494 26.2614C29.0562 23.702 30.9468 19.8892 30.9468 14.9999Z" fill="#4285F4"/>
</svg>
