<svg width="134" height="134" viewBox="0 0 134 134" fill="none" xmlns="http://www.w3.org/2000/svg">
<path d="M104.965 36.8492L73.6994 13.3995C71.7665 11.9498 69.4158 11.166 66.9997 11.166C64.5835 11.166 62.2315 11.9498 60.2986 13.3995L29.0327 36.8492C26.9525 38.4094 25.2639 40.4325 24.101 42.7583C22.9381 45.0842 22.333 47.649 22.333 50.2494V111.666C22.333 114.628 23.509 117.468 25.6031 119.562C27.6973 121.656 30.5381 122.833 33.4997 122.833H100.5C103.461 122.833 106.301 121.656 108.395 119.562C110.489 117.468 111.666 114.628 111.666 111.666V50.2494C111.666 47.649 111.06 45.0842 109.897 42.7583C108.734 40.4325 107.046 38.4094 104.965 36.8492V36.8492Z" stroke="#5B37B7" stroke-width="11.0917" stroke-miterlimit="10"/>
<path d="M67 72.584V106.084" stroke="#5B37B7" stroke-width="11.0917" stroke-miterlimit="10"/>
</svg>
