<svg width="123" height="112" viewBox="0 0 123 112" fill="none" xmlns="http://www.w3.org/2000/svg">
<path d="M61.5 106.365C61.5 106.365 5.41985 84.7176 5.41985 36.2644C5.41985 28.0841 8.66907 20.239 14.4535 14.4546C20.2378 8.67025 28.0836 5.42034 36.2639 5.42034C41.2214 5.41868 46.1045 6.61614 50.4989 8.91097C54.8933 11.2058 58.6684 14.5298 61.5 18.599C64.3349 14.5332 68.1088 11.2122 72.5024 8.91782C76.896 6.62338 81.7794 5.4234 86.736 5.42034C94.9164 5.42034 102.761 8.67025 108.545 14.4546C114.329 20.239 117.58 28.0841 117.58 36.2644C117.58 84.7176 61.5 106.365 61.5 106.365Z" stroke="#44475C" stroke-width="10.7919" stroke-linejoin="round"/>
</svg>
