<svg width="111" height="119" viewBox="0 0 111 119" fill="none" xmlns="http://www.w3.org/2000/svg">
<path d="M77.6911 27.7462C77.6911 21.8195 75.3364 16.1356 71.1456 11.9448C66.9548 7.75402 61.2712 5.39967 55.3446 5.39967C49.4179 5.39967 43.7343 7.75402 39.5435 11.9448C35.3527 16.1356 32.998 21.8195 32.998 27.7462V38.9195C32.998 44.8462 35.3527 50.5301 39.5435 54.7209C43.7343 58.9117 49.4179 61.266 55.3446 61.266C61.2712 61.266 66.9548 58.9117 71.1456 54.7209C75.3364 50.5301 77.6911 44.8462 77.6911 38.9195V27.7462Z" stroke="#44475C" stroke-width="10.7919" stroke-miterlimit="10"/>
<path d="M5.06549 117.131C13.5572 94.1141 32.9987 78.0246 55.3452 78.0246C77.6917 78.0246 97.1332 94.1141 105.625 117.131" stroke="#44475C" stroke-width="10.7919" stroke-miterlimit="10"/>
</svg>
